<svg width="78" height="78" viewBox="0 0 78 78" fill="none" xmlns="http://www.w3.org/2000/svg">
<rect width="78" height="78" rx="20.73" fill="#FF4AB6"/>
<path d="M10 38.5C10 38.04 10.16 37.64 10.47 37.3C10.76 36.99 11.16 36.8 11.67 36.73C15.63 36.17 18.96 35.57 21.67 34.91C24.35 34.29 26.56 33.44 28.3 32.38C30.04 31.32 31.43 29.92 32.47 28.18C33.51 26.47 34.34 24.27 34.97 21.59C35.62 18.93 36.2 15.65 36.71 11.74C36.76 11.21 36.95 10.78 37.29 10.47C37.63 10.16 38.04 10 38.52 10C38.98 10 39.38 10.16 39.72 10.47C40.06 10.78 40.25 11.21 40.3 11.74C40.73 15.65 41.25 18.94 41.86 21.62C42.46 24.3 43.29 26.51 44.36 28.25C45.42 29.99 46.83 31.39 48.6 32.45C50.36 33.51 52.59 34.36 55.3 34.99C58.03 35.64 61.39 36.22 65.37 36.73C65.86 36.8 66.24 36.99 66.53 37.3C66.85 37.64 67 38.04 67 38.5C67 38.98 66.85 39.38 66.53 39.7C66.24 40.01 65.86 40.21 65.37 40.31C61.39 40.82 58.03 41.38 55.3 42.01C52.59 42.66 50.36 43.51 48.6 44.55C46.83 45.61 45.42 47.01 44.36 48.75C43.29 50.49 42.46 52.7 41.86 55.38C41.25 58.06 40.73 61.36 40.3 65.3C40.25 65.8 40.06 66.22 39.72 66.53C39.38 66.84 38.98 67 38.52 67C38.04 67 37.63 66.84 37.29 66.53C36.95 66.22 36.76 65.8 36.71 65.3C36.27 61.36 35.75 58.06 35.15 55.38C34.55 52.7 33.71 50.49 32.65 48.75C31.61 47.01 30.21 45.61 28.45 44.55C26.68 43.51 24.44 42.66 21.71 42.01C18.98 41.38 15.63 40.82 11.67 40.31C11.16 40.21 10.76 40.01 10.47 39.7C10.16 39.38 10 38.98 10 38.5Z" fill="white"/>
</svg>
